<?xml version="1.0" encoding="UTF-8"?>
<svg xmlns="http://www.w3.org/2000/svg" viewBox="0 0 128 128" role="img" aria-labelledby="title desc">
  <title id="title">黑米</title>
  <desc id="desc">主食食材图标：黑米</desc>
  <defs>
    <linearGradient id="bg" x1="16" y1="14" x2="112" y2="116" gradientUnits="userSpaceOnUse">
      <stop offset="0" stop-color="#ffffff"/>
      <stop offset="1" stop-color="#fff8e9"/>
    </linearGradient>
    <linearGradient id="main" x1="34" y1="28" x2="96" y2="98" gradientUnits="userSpaceOnUse">
      <stop offset="0" stop-color="#a89ab6"/>
      <stop offset="1" stop-color="#4b4354"/>
    </linearGradient>
    <filter id="softShadow" x="-30%" y="-30%" width="160%" height="160%">
      <feDropShadow dx="0" dy="8" stdDeviation="7" flood-color="#31523d" flood-opacity="0.18"/>
    </filter>
  </defs>
  <rect x="8" y="8" width="112" height="112" rx="28" fill="url(#bg)"/>
  <circle cx="38" cy="35" r="14" fill="#fff" opacity="0.44"/>
  <g filter="url(#softShadow)" stroke="#2b4937" stroke-opacity="0.16" stroke-width="2" stroke-linecap="round" stroke-linejoin="round">
    <path fill="#fff" d="M31 66h66l-8 34H39l-8-34Z"/><g fill="url(#main)"><ellipse cx="42" cy="55" rx="5" ry="10" transform="rotate(-22 42 55)"/><ellipse cx="55" cy="50" rx="5" ry="10" transform="rotate(8 55 50)"/><ellipse cx="69" cy="51" rx="5" ry="10" transform="rotate(-12 69 51)"/><ellipse cx="83" cy="56" rx="5" ry="10" transform="rotate(22 83 56)"/><ellipse cx="50" cy="68" rx="5" ry="10" transform="rotate(28 50 68)"/><ellipse cx="66" cy="68" rx="5" ry="10" transform="rotate(-18 66 68)"/><ellipse cx="80" cy="72" rx="5" ry="10" transform="rotate(10 80 72)"/></g><path fill="#2d2535" opacity=".7" d="M39 76h50l-5 15H44l-5-15Z"/>
  </g>
</svg>
