<?xml version="1.0" encoding="UTF-8"?>
<svg xmlns="http://www.w3.org/2000/svg" viewBox="0 0 128 128" role="img" aria-labelledby="title desc">
  <title id="title">胡萝卜</title>
  <desc id="desc">蔬菜食材图标：胡萝卜</desc>
  <defs>
    <linearGradient id="bg" x1="16" y1="14" x2="112" y2="116" gradientUnits="userSpaceOnUse">
      <stop offset="0" stop-color="#ffffff"/>
      <stop offset="1" stop-color="#eff9ed"/>
    </linearGradient>
    <linearGradient id="main" x1="34" y1="28" x2="96" y2="98" gradientUnits="userSpaceOnUse">
      <stop offset="0" stop-color="#ffd69b"/>
      <stop offset="1" stop-color="#df8842"/>
    </linearGradient>
    <filter id="softShadow" x="-30%" y="-30%" width="160%" height="160%">
      <feDropShadow dx="0" dy="8" stdDeviation="7" flood-color="#31523d" flood-opacity="0.18"/>
    </filter>
  </defs>
  <rect x="8" y="8" width="112" height="112" rx="28" fill="url(#bg)"/>
  <circle cx="38" cy="35" r="14" fill="#fff" opacity="0.44"/>
  <g filter="url(#softShadow)" stroke="#2b4937" stroke-opacity="0.16" stroke-width="2" stroke-linecap="round" stroke-linejoin="round">
    <path fill="url(#main)" d="M51 44c16-3 30 2 34 13L60 105 35 61c1-8 7-14 16-17Z"/><path fill="#4f8e54" d="M56 43c-10-15-2-24 8-10 1-16 13-18 13 0 9-11 18-4 7 10H56Z"/><path fill="none" stroke="#fff" stroke-width="4" opacity=".48" d="M51 62l18-3M56 78l13-3"/>
  </g>
</svg>
