<?xml version="1.0" encoding="UTF-8"?>
<svg xmlns="http://www.w3.org/2000/svg" viewBox="0 0 128 128" role="img" aria-labelledby="title desc">
  <title id="title">芹菜</title>
  <desc id="desc">蔬菜食材图标：芹菜</desc>
  <defs>
    <linearGradient id="bg" x1="16" y1="14" x2="112" y2="116" gradientUnits="userSpaceOnUse">
      <stop offset="0" stop-color="#ffffff"/>
      <stop offset="1" stop-color="#eff9ed"/>
    </linearGradient>
    <linearGradient id="main" x1="34" y1="28" x2="96" y2="98" gradientUnits="userSpaceOnUse">
      <stop offset="0" stop-color="#d2eab8"/>
      <stop offset="1" stop-color="#6fad69"/>
    </linearGradient>
    <filter id="softShadow" x="-30%" y="-30%" width="160%" height="160%">
      <feDropShadow dx="0" dy="8" stdDeviation="7" flood-color="#31523d" flood-opacity="0.18"/>
    </filter>
  </defs>
  <rect x="8" y="8" width="112" height="112" rx="28" fill="url(#bg)"/>
  <circle cx="38" cy="35" r="14" fill="#fff" opacity="0.44"/>
  <g filter="url(#softShadow)" stroke="#2b4937" stroke-opacity="0.16" stroke-width="2" stroke-linecap="round" stroke-linejoin="round">
    <path fill="none" stroke="#6fad69" stroke-width="14" stroke-linecap="round" d="M46 103 55 43M64 104 64 36M82 103 73 43"/><path fill="none" stroke="#e9f5d4" stroke-width="4" opacity=".8" d="M46 101 55 45M64 102 64 39M82 101 73 45"/><path fill="#4f8e54" d="M50 46c-20-8-22-24-3-25 8 0 13 6 14 15M77 46c20-8 22-24 3-25-8 0-13 6-14 15"/>
  </g>
</svg>
