<?xml version="1.0" encoding="UTF-8"?>
<svg xmlns="http://www.w3.org/2000/svg" viewBox="0 0 128 128" role="img" aria-labelledby="title desc">
  <title id="title">玉米</title>
  <desc id="desc">主食食材图标：玉米</desc>
  <defs>
    <linearGradient id="bg" x1="16" y1="14" x2="112" y2="116" gradientUnits="userSpaceOnUse">
      <stop offset="0" stop-color="#ffffff"/>
      <stop offset="1" stop-color="#fff8e9"/>
    </linearGradient>
    <linearGradient id="main" x1="34" y1="28" x2="96" y2="98" gradientUnits="userSpaceOnUse">
      <stop offset="0" stop-color="#fff0a8"/>
      <stop offset="1" stop-color="#e4b63c"/>
    </linearGradient>
    <filter id="softShadow" x="-30%" y="-30%" width="160%" height="160%">
      <feDropShadow dx="0" dy="8" stdDeviation="7" flood-color="#31523d" flood-opacity="0.18"/>
    </filter>
  </defs>
  <rect x="8" y="8" width="112" height="112" rx="28" fill="url(#bg)"/>
  <circle cx="38" cy="35" r="14" fill="#fff" opacity="0.44"/>
  <g filter="url(#softShadow)" stroke="#2b4937" stroke-opacity="0.16" stroke-width="2" stroke-linecap="round" stroke-linejoin="round">
    <path fill="url(#main)" d="M59 27c22 10 29 38 17 76-28-10-39-35-17-76Z"/><path fill="none" stroke="#fff" stroke-width="4" opacity=".46" d="M58 42c10 10 16 26 17 45M50 57l27-9M47 72l31-9"/><path fill="#4f8e54" d="M43 82c13-5 26-4 38 5-8 13-25 18-38-5Z"/>
  </g>
</svg>
