<?xml version="1.0" encoding="UTF-8"?>
<svg xmlns="http://www.w3.org/2000/svg" viewBox="0 0 128 128" role="img" aria-labelledby="title desc">
  <title id="title">大蒜</title>
  <desc id="desc">蔬菜食材图标：大蒜</desc>
  <defs>
    <linearGradient id="bg" x1="16" y1="14" x2="112" y2="116" gradientUnits="userSpaceOnUse">
      <stop offset="0" stop-color="#ffffff"/>
      <stop offset="1" stop-color="#eff9ed"/>
    </linearGradient>
    <linearGradient id="main" x1="34" y1="28" x2="96" y2="98" gradientUnits="userSpaceOnUse">
      <stop offset="0" stop-color="#f7f0d8"/>
      <stop offset="1" stop-color="#e7dfc8"/>
    </linearGradient>
    <filter id="softShadow" x="-30%" y="-30%" width="160%" height="160%">
      <feDropShadow dx="0" dy="8" stdDeviation="7" flood-color="#31523d" flood-opacity="0.18"/>
    </filter>
  </defs>
  <rect x="8" y="8" width="112" height="112" rx="28" fill="url(#bg)"/>
  <circle cx="38" cy="35" r="14" fill="#fff" opacity="0.44"/>
  <g filter="url(#softShadow)" stroke="#2b4937" stroke-opacity="0.16" stroke-width="2" stroke-linecap="round" stroke-linejoin="round">
    <path fill="#f8f1dc" d="M64 33c18 10 30 27 27 47-3 21-15 32-27 32S40 101 37 80c-3-20 9-37 27-47Z"/><path fill="url(#main)" d="M64 38c8 10 12 24 11 43-1 18-5 27-11 27s-10-9-11-27c-1-19 3-33 11-43Z"/><path fill="#f7f0d8" opacity=".82" d="M43 61c8 5 14 18 14 36-10-3-18-11-20-25-1-5 1-9 6-11ZM85 61c5 2 7 6 6 11-2 14-10 22-20 25 0-18 6-31 14-36Z"/><path fill="#4f8e54" d="M59 32c7-13 15-15 24-7-13 2-19 8-22 18l-2-11Z"/>
  </g>
</svg>
