<?xml version="1.0" encoding="UTF-8"?>
<svg xmlns="http://www.w3.org/2000/svg" viewBox="0 0 128 128" role="img" aria-labelledby="title desc">
  <title id="title">面条</title>
  <desc id="desc">主食食材图标：面条</desc>
  <defs>
    <linearGradient id="bg" x1="16" y1="14" x2="112" y2="116" gradientUnits="userSpaceOnUse">
      <stop offset="0" stop-color="#ffffff"/>
      <stop offset="1" stop-color="#fff8e9"/>
    </linearGradient>
    <linearGradient id="main" x1="34" y1="28" x2="96" y2="98" gradientUnits="userSpaceOnUse">
      <stop offset="0" stop-color="#f5e4a8"/>
      <stop offset="1" stop-color="#d6b874"/>
    </linearGradient>
    <filter id="softShadow" x="-30%" y="-30%" width="160%" height="160%">
      <feDropShadow dx="0" dy="8" stdDeviation="7" flood-color="#31523d" flood-opacity="0.18"/>
    </filter>
  </defs>
  <rect x="8" y="8" width="112" height="112" rx="28" fill="url(#bg)"/>
  <circle cx="38" cy="35" r="14" fill="#fff" opacity="0.44"/>
  <g filter="url(#softShadow)" stroke="#2b4937" stroke-opacity="0.16" stroke-width="2" stroke-linecap="round" stroke-linejoin="round">
    <path fill="#fff" d="M31 62h66l-8 36H39l-8-36Z"/><path fill="none" stroke="#d6b874" stroke-width="6" stroke-linecap="round" d="M39 52c8-10 16 10 24 0s16 10 25 0M38 66c9 12 18-10 27 0s18-10 28 0M42 80c8 10 16-8 24 1s16-7 23 1"/><path fill="none" stroke="#8b6a36" stroke-width="4" stroke-linecap="round" d="M42 42l43 14"/>
  </g>
</svg>
