<?xml version="1.0" encoding="UTF-8"?>
<svg xmlns="http://www.w3.org/2000/svg" viewBox="0 0 128 128" role="img" aria-labelledby="title desc">
  <title id="title">意面</title>
  <desc id="desc">主食食材图标：意面</desc>
  <defs>
    <linearGradient id="bg" x1="16" y1="14" x2="112" y2="116" gradientUnits="userSpaceOnUse">
      <stop offset="0" stop-color="#ffffff"/>
      <stop offset="1" stop-color="#fff8e9"/>
    </linearGradient>
    <linearGradient id="main" x1="34" y1="28" x2="96" y2="98" gradientUnits="userSpaceOnUse">
      <stop offset="0" stop-color="#f8dd8e"/>
      <stop offset="1" stop-color="#d9aa4c"/>
    </linearGradient>
    <filter id="softShadow" x="-30%" y="-30%" width="160%" height="160%">
      <feDropShadow dx="0" dy="8" stdDeviation="7" flood-color="#31523d" flood-opacity="0.18"/>
    </filter>
  </defs>
  <rect x="8" y="8" width="112" height="112" rx="28" fill="url(#bg)"/>
  <circle cx="38" cy="35" r="14" fill="#fff" opacity="0.44"/>
  <g filter="url(#softShadow)" stroke="#2b4937" stroke-opacity="0.16" stroke-width="2" stroke-linecap="round" stroke-linejoin="round">
    <path fill="#fff" d="M33 74c8-19 54-21 64-2 5 10-6 24-31 25-26 1-39-10-33-23Z"/><path fill="none" stroke="#d9aa4c" stroke-width="7" stroke-linecap="round" d="M44 73c8-16 31-14 39-3 6 9-3 18-18 17-14-1-18-10-9-16 9-6 22 1 28 10"/><path fill="none" stroke="#f8dd8e" stroke-width="5" stroke-linecap="round" opacity=".86" d="M41 84c18 8 38 7 54-3"/><circle cx="88" cy="61" r="5" fill="#d65a43" opacity=".72"/>
  </g>
</svg>
