<?xml version="1.0" encoding="UTF-8"?>
<svg xmlns="http://www.w3.org/2000/svg" viewBox="0 0 128 128" role="img" aria-labelledby="title desc">
  <title id="title">猪肉</title>
  <desc id="desc">肉蛋海鲜食材图标：猪肉</desc>
  <defs>
    <linearGradient id="bg" x1="16" y1="14" x2="112" y2="116" gradientUnits="userSpaceOnUse">
      <stop offset="0" stop-color="#ffffff"/>
      <stop offset="1" stop-color="#fff2ec"/>
    </linearGradient>
    <linearGradient id="main" x1="34" y1="28" x2="96" y2="98" gradientUnits="userSpaceOnUse">
      <stop offset="0" stop-color="#f4b9a7"/>
      <stop offset="1" stop-color="#c86f68"/>
    </linearGradient>
    <filter id="softShadow" x="-30%" y="-30%" width="160%" height="160%">
      <feDropShadow dx="0" dy="8" stdDeviation="7" flood-color="#31523d" flood-opacity="0.18"/>
    </filter>
  </defs>
  <rect x="8" y="8" width="112" height="112" rx="28" fill="url(#bg)"/>
  <circle cx="38" cy="35" r="14" fill="#fff" opacity="0.44"/>
  <g filter="url(#softShadow)" stroke="#2b4937" stroke-opacity="0.16" stroke-width="2" stroke-linecap="round" stroke-linejoin="round">
    <path fill="url(#main)" d="M30 75c2-24 29-40 54-30 21 9 26 32 10 47-16 15-50 12-61-4-3-4-4-9-3-13Z"/><path fill="#fff6ee" opacity=".54" d="M48 55c15-9 35-7 46 5-13-1-22 5-26 18-6-10-14-17-20-23Z"/><circle cx="77" cy="72" r="8" fill="#8f4b48" opacity=".3"/>
  </g>
</svg>
