<?xml version="1.0" encoding="UTF-8"?>
<svg xmlns="http://www.w3.org/2000/svg" viewBox="0 0 128 128" role="img" aria-labelledby="title desc">
  <title id="title">排骨</title>
  <desc id="desc">肉蛋海鲜食材图标：排骨</desc>
  <defs>
    <linearGradient id="bg" x1="16" y1="14" x2="112" y2="116" gradientUnits="userSpaceOnUse">
      <stop offset="0" stop-color="#ffffff"/>
      <stop offset="1" stop-color="#fff2ec"/>
    </linearGradient>
    <linearGradient id="main" x1="34" y1="28" x2="96" y2="98" gradientUnits="userSpaceOnUse">
      <stop offset="0" stop-color="#f2c0a0"/>
      <stop offset="1" stop-color="#c66a60"/>
    </linearGradient>
    <filter id="softShadow" x="-30%" y="-30%" width="160%" height="160%">
      <feDropShadow dx="0" dy="8" stdDeviation="7" flood-color="#31523d" flood-opacity="0.18"/>
    </filter>
  </defs>
  <rect x="8" y="8" width="112" height="112" rx="28" fill="url(#bg)"/>
  <circle cx="38" cy="35" r="14" fill="#fff" opacity="0.44"/>
  <g filter="url(#softShadow)" stroke="#2b4937" stroke-opacity="0.16" stroke-width="2" stroke-linecap="round" stroke-linejoin="round">
    <path fill="#f7ead7" d="M38 42c8-9 21-6 24 7 4-14 22-15 28-3 7 15-6 25-26 48-22-22-38-36-26-52Z"/><path fill="none" stroke="#c66a60" stroke-width="13" stroke-linecap="round" d="M37 75c16-14 37-19 58-12"/><path fill="none" stroke="#c66a60" stroke-width="10" stroke-linecap="round" opacity=".9" d="M43 89c15-12 32-15 49-9"/><circle cx="38" cy="76" r="8" fill="#f7ead7"/><circle cx="96" cy="63" r="8" fill="#f7ead7"/>
  </g>
</svg>
