<?xml version="1.0" encoding="UTF-8"?>
<svg xmlns="http://www.w3.org/2000/svg" viewBox="0 0 128 128" role="img" aria-labelledby="title desc">
  <title id="title">鲈鱼</title>
  <desc id="desc">高蛋白食材图标：鲈鱼</desc>
  <defs>
    <linearGradient id="bg" x1="16" y1="14" x2="112" y2="116" gradientUnits="userSpaceOnUse">
      <stop offset="0" stop-color="#ffffff"/>
      <stop offset="1" stop-color="#eef8f1"/>
    </linearGradient>
    <linearGradient id="main" x1="34" y1="28" x2="96" y2="98" gradientUnits="userSpaceOnUse">
      <stop offset="0" stop-color="#d6f4ef"/>
      <stop offset="1" stop-color="#6fb5c7"/>
    </linearGradient>
    <filter id="softShadow" x="-30%" y="-30%" width="160%" height="160%">
      <feDropShadow dx="0" dy="8" stdDeviation="7" flood-color="#31523d" flood-opacity="0.18"/>
    </filter>
  </defs>
  <rect x="8" y="8" width="112" height="112" rx="28" fill="url(#bg)"/>
  <circle cx="38" cy="35" r="14" fill="#fff" opacity="0.44"/>
  <g filter="url(#softShadow)" stroke="#2b4937" stroke-opacity="0.16" stroke-width="2" stroke-linecap="round" stroke-linejoin="round">
    <path fill="url(#main)" d="M22 64c16-22 51-31 75-7 8-9 16-14 24-16-3 12-3 25 0 37-8-3-16-8-24-17-23 24-59 17-75 3Z"/><path fill="#d6f4ef" opacity=".7" d="M63 43l15-13 8 20M63 85l17 12 6-20"/><circle cx="45" cy="57" r="5" fill="#253d45"/><path fill="none" stroke="#fff" stroke-width="5" opacity=".58" d="M58 51c11 7 19 16 24 28"/><path fill="none" stroke="#2b4937" stroke-opacity=".2" stroke-width="3" d="M38 73c16 5 34 4 51-3"/>
  </g>
</svg>
