<?xml version="1.0" encoding="UTF-8"?>
<svg xmlns="http://www.w3.org/2000/svg" viewBox="0 0 128 128" role="img" aria-labelledby="title desc">
  <title id="title">虾仁</title>
  <desc id="desc">高蛋白食材图标：虾仁</desc>
  <defs>
    <linearGradient id="bg" x1="16" y1="14" x2="112" y2="116" gradientUnits="userSpaceOnUse">
      <stop offset="0" stop-color="#ffffff"/>
      <stop offset="1" stop-color="#eef8f1"/>
    </linearGradient>
    <linearGradient id="main" x1="34" y1="28" x2="96" y2="98" gradientUnits="userSpaceOnUse">
      <stop offset="0" stop-color="#ffd1bb"/>
      <stop offset="1" stop-color="#f47f62"/>
    </linearGradient>
    <filter id="softShadow" x="-30%" y="-30%" width="160%" height="160%">
      <feDropShadow dx="0" dy="8" stdDeviation="7" flood-color="#31523d" flood-opacity="0.18"/>
    </filter>
  </defs>
  <rect x="8" y="8" width="112" height="112" rx="28" fill="url(#bg)"/>
  <circle cx="38" cy="35" r="14" fill="#fff" opacity="0.44"/>
  <g filter="url(#softShadow)" stroke="#2b4937" stroke-opacity="0.16" stroke-width="2" stroke-linecap="round" stroke-linejoin="round">
    <path fill="url(#main)" d="M82 34c18 9 17 34 3 49-15 17-43 17-53 2-8-12 1-27 16-27 7 0 14 4 16 11 6-2 10-7 10-14 0-8-6-14-15-14 7-10 16-11 23-7Z"/><path fill="none" stroke="#fff" stroke-width="5" opacity=".55" d="M73 45c10 8 10 23-1 33M58 55c8 6 8 17 0 24"/><path fill="none" stroke="#f47f62" stroke-width="4" d="M36 82c-8 7-14 7-20 1"/>
  </g>
</svg>
