<?xml version="1.0" encoding="UTF-8"?>
<svg xmlns="http://www.w3.org/2000/svg" viewBox="0 0 128 128" role="img" aria-labelledby="title desc">
  <title id="title">菠菜</title>
  <desc id="desc">蔬菜食材图标：菠菜</desc>
  <defs>
    <linearGradient id="bg" x1="16" y1="14" x2="112" y2="116" gradientUnits="userSpaceOnUse">
      <stop offset="0" stop-color="#ffffff"/>
      <stop offset="1" stop-color="#eff9ed"/>
    </linearGradient>
    <linearGradient id="main" x1="34" y1="28" x2="96" y2="98" gradientUnits="userSpaceOnUse">
      <stop offset="0" stop-color="#b8ddac"/>
      <stop offset="1" stop-color="#3f8d59"/>
    </linearGradient>
    <filter id="softShadow" x="-30%" y="-30%" width="160%" height="160%">
      <feDropShadow dx="0" dy="8" stdDeviation="7" flood-color="#31523d" flood-opacity="0.18"/>
    </filter>
  </defs>
  <rect x="8" y="8" width="112" height="112" rx="28" fill="url(#bg)"/>
  <circle cx="38" cy="35" r="14" fill="#fff" opacity="0.44"/>
  <g filter="url(#softShadow)" stroke="#2b4937" stroke-opacity="0.16" stroke-width="2" stroke-linecap="round" stroke-linejoin="round">
    <path fill="url(#main)" d="M64 25c19 13 24 34 7 60-25-4-36-21-24-41 5-8 11-14 17-19Z"/><path fill="url(#main)" d="M42 49c17 3 27 16 25 39-22 8-40-1-43-20-1-8 5-16 18-19Z" opacity=".86"/><path fill="url(#main)" d="M86 48c-17 4-27 17-24 40 22 7 39-3 42-22 1-8-6-16-18-18Z" opacity=".86"/><path fill="none" stroke="#fff" stroke-width="4" opacity=".6" d="M64 35c0 26-8 48-22 66M65 56c10 13 18 27 25 42M51 63c-9 6-17 12-24 20"/>
  </g>
</svg>
