<?xml version="1.0" encoding="UTF-8"?>
<svg xmlns="http://www.w3.org/2000/svg" viewBox="0 0 128 128" role="img" aria-labelledby="title desc">
  <title id="title">草莓</title>
  <desc id="desc">水果食材图标：草莓</desc>
  <defs>
    <linearGradient id="bg" x1="16" y1="14" x2="112" y2="116" gradientUnits="userSpaceOnUse">
      <stop offset="0" stop-color="#ffffff"/>
      <stop offset="1" stop-color="#fff2f2"/>
    </linearGradient>
    <linearGradient id="main" x1="34" y1="28" x2="96" y2="98" gradientUnits="userSpaceOnUse">
      <stop offset="0" stop-color="#ffc1c9"/>
      <stop offset="1" stop-color="#d84e5e"/>
    </linearGradient>
    <filter id="softShadow" x="-30%" y="-30%" width="160%" height="160%">
      <feDropShadow dx="0" dy="8" stdDeviation="7" flood-color="#31523d" flood-opacity="0.18"/>
    </filter>
  </defs>
  <rect x="8" y="8" width="112" height="112" rx="28" fill="url(#bg)"/>
  <circle cx="38" cy="35" r="14" fill="#fff" opacity="0.44"/>
  <g filter="url(#softShadow)" stroke="#2b4937" stroke-opacity="0.16" stroke-width="2" stroke-linecap="round" stroke-linejoin="round">
    <path fill="url(#main)" d="M64 43c24 0 34 20 22 42-8 15-18 25-22 25S50 100 42 85c-12-22-2-42 22-42Z"/><path fill="#4f8e54" d="M64 35l7 12 13-5-7 12 12 5-14 1-3 12-8-10-8 10-3-12-14-1 12-5-7-12 13 5 7-12Z"/><g fill="#fff" opacity=".56"><circle cx="55" cy="62" r="4"/><circle cx="71" cy="63" r="4"/><circle cx="61" cy="76" r="4"/><circle cx="78" cy="80" r="4"/><circle cx="52" cy="84" r="4"/></g>
  </g>
</svg>
