<?xml version="1.0" encoding="UTF-8"?>
<svg xmlns="http://www.w3.org/2000/svg" viewBox="0 0 128 128" role="img" aria-labelledby="title desc">
  <title id="title">金枪鱼</title>
  <desc id="desc">肉蛋海鲜食材图标：金枪鱼</desc>
  <defs>
    <linearGradient id="bg" x1="16" y1="14" x2="112" y2="116" gradientUnits="userSpaceOnUse">
      <stop offset="0" stop-color="#ffffff"/>
      <stop offset="1" stop-color="#fff2ec"/>
    </linearGradient>
    <linearGradient id="main" x1="34" y1="28" x2="96" y2="98" gradientUnits="userSpaceOnUse">
      <stop offset="0" stop-color="#e58aa2"/>
      <stop offset="1" stop-color="#9a4860"/>
    </linearGradient>
    <filter id="softShadow" x="-30%" y="-30%" width="160%" height="160%">
      <feDropShadow dx="0" dy="8" stdDeviation="7" flood-color="#31523d" flood-opacity="0.18"/>
    </filter>
  </defs>
  <rect x="8" y="8" width="112" height="112" rx="28" fill="url(#bg)"/>
  <circle cx="38" cy="35" r="14" fill="#fff" opacity="0.44"/>
  <g filter="url(#softShadow)" stroke="#2b4937" stroke-opacity="0.16" stroke-width="2" stroke-linecap="round" stroke-linejoin="round">
    <ellipse fill="url(#main)" cx="66" cy="69" rx="35" ry="28" transform="rotate(-14 66 69)"/><ellipse cx="66" cy="69" rx="22" ry="15" fill="#7f3147" opacity=".42" transform="rotate(-14 66 69)"/><path fill="none" stroke="#fff" stroke-width="5" opacity=".54" d="M42 66c14-12 36-16 55-7M45 80c16 7 34 7 49-2"/><path fill="#fff" opacity=".35" d="M54 45c4 17 18 30 38 35-12 12-39 12-50 1 1-15 5-27 12-36Z"/>
  </g>
</svg>
