<?xml version="1.0" encoding="UTF-8"?>
<svg xmlns="http://www.w3.org/2000/svg" viewBox="0 0 128 128" role="img" aria-labelledby="title desc">
  <title id="title">米饭</title>
  <desc id="desc">主食食材图标：米饭</desc>
  <defs>
    <linearGradient id="bg" x1="16" y1="14" x2="112" y2="116" gradientUnits="userSpaceOnUse">
      <stop offset="0" stop-color="#ffffff"/>
      <stop offset="1" stop-color="#fff8e9"/>
    </linearGradient>
    <linearGradient id="main" x1="34" y1="28" x2="96" y2="98" gradientUnits="userSpaceOnUse">
      <stop offset="0" stop-color="#cfc5a6"/>
      <stop offset="1" stop-color="#eee9d9"/>
    </linearGradient>
    <filter id="softShadow" x="-30%" y="-30%" width="160%" height="160%">
      <feDropShadow dx="0" dy="8" stdDeviation="7" flood-color="#31523d" flood-opacity="0.18"/>
    </filter>
  </defs>
  <rect x="8" y="8" width="112" height="112" rx="28" fill="url(#bg)"/>
  <circle cx="38" cy="35" r="14" fill="#fff" opacity="0.44"/>
  <g filter="url(#softShadow)" stroke="#2b4937" stroke-opacity="0.16" stroke-width="2" stroke-linecap="round" stroke-linejoin="round">
    <path fill="#fff" d="M29 60c3-24 67-24 70 0H29Z"/><path fill="url(#main)" d="M28 64h72l-9 37H37l-9-37Z"/><g fill="#fff" opacity=".95"><ellipse cx="45" cy="54" rx="5" ry="10" transform="rotate(-20 45 54)"/><ellipse cx="58" cy="49" rx="5" ry="10" transform="rotate(10 58 49)"/><ellipse cx="71" cy="50" rx="5" ry="10" transform="rotate(-8 71 50)"/><ellipse cx="84" cy="55" rx="5" ry="10" transform="rotate(18 84 55)"/><ellipse cx="54" cy="62" rx="5" ry="10" transform="rotate(28 54 62)"/><ellipse cx="70" cy="62" rx="5" ry="10" transform="rotate(-18 70 62)"/></g><path fill="#cfc5a6" opacity=".85" d="M37 78h54l-4 15H41l-4-15Z"/>
  </g>
</svg>
